<svg xmlns="http://www.w3.org/2000/svg" id="svg2" width="12" height="12" version="1.1"><metadata id="metadata7"/><g id="layer1" fill="#000" transform="translate(0 -1040.4)"><path id="rect2985" d="m1.9688 1043.4c-1.0939 0-1.9688 0.8-1.9688 1.9v5.0935c0 1.0938 0.87492 1.9754 1.9688 1.9687l5.0625-0.031c1.0938 0 1.9687-0.9 1.9687-2v-3.0313h-1v3c0 0.554-0.44601 0.9966-1 1l-5 0.031c-0.55398 0-1-0.446-1-1v-5.031c0-0.554 0.446-1 1-1h3v-1z"/><path id="rect3763" d="m7 1040.4-0.0000048 1h3.3126l-7.1317 7.1514 0.68745 0.6874 7.1316-7.1514 0.000065 3.3126h1l-0.00004-4.0001 0.000075-0.9999z"/></g></svg>