<?xml version="1.0" encoding="UTF-8" standalone="no"?>
<svg
  xmlns:dc="http://purl.org/dc/elements/1.1/"
  xmlns:cc="http://creativecommons.org/ns#"
  xmlns:rdf="http://www.w3.org/1999/02/22-rdf-syntax-ns#"
  xmlns:svg="http://www.w3.org/2000/svg"
  xmlns="http://www.w3.org/2000/svg"
  xmlns:sodipodi="http://sodipodi.sourceforge.net/DTD/sodipodi-0.dtd"
  xmlns:inkscape="http://www.inkscape.org/namespaces/inkscape"
  viewBox="0 0 300 300"
  height="300"
  width="300"
  version="1.1"
  id="svg4177"
  inkscape:version="0.91 r13725"
  sodipodi:docname="halt.svg">
 <sodipodi:namedview
   pagecolor="#ffffff"
   bordercolor="#666666"
   borderopacity="1"
   objecttolerance="10"
   gridtolerance="10"
   guidetolerance="10"
   inkscape:pageopacity="0"
   inkscape:pageshadow="2"
   inkscape:window-width="894"
   inkscape:window-height="567"
   id="namedview6"
   showgrid="true"
   inkscape:zoom="0.79547234"
   inkscape:cx="106.2459"
   inkscape:cy="129.48282"
   inkscape:window-x="0"
   inkscape:window-y="0"
   inkscape:window-maximized="0"
   inkscape:current-layer="svg4177">
  <inkscape:grid
    type="xygrid"
    id="grid4134" />
 </sodipodi:namedview>
 <metadata
   id="metadata4183">
  <rdf:RDF>
   <cc:Work
     rdf:about="">
    <dc:format>image/svg+xml</dc:format>
    <dc:type
      rdf:resource="http://purl.org/dc/dcmitype/StillImage" />
    <dc:title></dc:title>
   </cc:Work>
  </rdf:RDF>
 </metadata>
 <defs
   id="defs4181" />
 <path
   id="path4198"
   d="m 93.618879,292.37452 c -16.849569,-3.30306 -29.53486,-15.74806 -34.050986,-33.40598 -2.257423,-8.82641 -2.380516,-13.82026 -2.380516,-96.5762 0,-63.772481 0.386981,-88.560111 1.437307,-92.065807 1.928166,-6.43564 7.521428,-10.64028 14.154327,-10.64028 4.066231,0 5.943433,0.812569 9.58555,4.149243 l 4.529066,4.149233 0.60625,46.947911 c 0.543452,42.08529 0.815488,47.07977 2.626488,48.22107 1.465234,0.9234 2.547822,0.83532 3.940625,-0.32061 1.699527,-1.41049 1.928253,-8.02608 1.98882,-57.52345 0.04899,-40.016884 0.480189,-57.125113 1.515625,-60.131415 2.949595,-8.563858 14.347735,-12.376699 21.587685,-7.221398 7.09043,5.04884 7.14076,5.422979 7.14076,53.095036 0,23.986067 0.33118,44.474107 0.73597,45.528947 0.99031,2.58073 6.17369,2.44142 7.5887,-0.20395 0.66088,-1.23553 1.13156,-26.87322 1.12676,-61.376363 -0.007,-56.527734 0.0989,-59.40126 2.32029,-62.443753 1.28069,-1.754089 4.33615,-4.187482 6.78993,-5.4075402 5.52836,-2.7487928 10.79029,-1.3944323 16.09772,4.1433742 l 3.53438,3.687784 0.60625,57.687537 c 0.55691,52.992611 0.77708,57.795201 2.70538,59.010501 1.62264,1.02269 2.57253,0.84957 4.18473,-0.76263 1.87443,-1.87444 2.10248,-5.86247 2.25216,-39.385697 0.23114,-51.766291 -0.19659,-47.214828 4.88781,-52.010042 5.31177,-5.009643 12.00589,-5.567315 17.74805,-1.478542 7.10153,5.056726 7.02187,4.137661 7.02187,81.018301 0,38.70018 0.40921,70.34599 0.90937,70.32404 0.50015,-0.0219 2.90487,-3.15929 5.34383,-6.97187 11.19033,-17.49285 25.54796,-37.45935 28.47543,-39.59953 4.05158,-2.96195 13.3644,-3.16052 17.34859,-0.36988 4.59613,3.21925 7.31866,8.37989 7.32728,13.88909 0.008,4.26908 -1.74665,8.02877 -10.74358,23.0375 -60.4636,100.86579 -61.14472,101.89535 -71.37666,107.89167 -9.26016,5.42681 -17.18816,6.39831 -51.24676,6.27981 -17.00532,-0.0592 -33.348642,-0.58392 -36.318501,-1.16611 z"
   style="fill:#000000"
   inkscape:connector-curvature="0" />
</svg>
