<svg xmlns:dc="http://purl.org/dc/elements/1.1/" xmlns:cc="http://creativecommons.org/ns#" xmlns:rdf="http://www.w3.org/1999/02/22-rdf-syntax-ns#" xmlns:svg="http://www.w3.org/2000/svg" xmlns="http://www.w3.org/2000/svg" viewBox="0 0 107.5 1187.5" height="1187.5" width="107.5" version="1.1" id="svg4192"><metadata id="metadata4198"><rdf:RDF><cc:Work rdf:about=""><dc:format>image/svg+xml</dc:format><dc:type rdf:resource="http://purl.org/dc/dcmitype/StillImage"/></cc:Work></rdf:RDF></metadata><defs id="defs4196"/><path id="path4742" d="m40.18 1174.06c-18.89-12.2-20.06-65.09-1.75-78.63 4.61-3.41 7.74-4.31 15.11-4.37 17.06-0.13 26.55 15.36 26.55 43.31 0 22.19-6.06 36.77-17.22 41.44-6.99 2.92-16.62 2.18-22.69-1.75zm20.84-9.68c5.58-4.69 7.99-11.99 8.68-26.26 0.95-19.56-3.65-33.71-11.88-36.56-7.57-2.62-14.26 0.86-18.24 9.49-2.34 5.06-2.7 8.06-2.7 22.71 0 18.82 1.95 26.66 7.77 31.24 4.55 3.58 11.71 3.31 16.37-0.61zM30.94 1069.31C30.42 1068.77 30 1066.46 30 1064.17c0-2.29 0.42-4.21 0.94-4.27 0.52-0.06 6.1-0.3 12.42-0.54 6.31-0.24 12.78-1.11 14.38-1.93 3.83-1.98 8.43-6.21 10.11-9.31 1.21-2.22 3.42-20.62 2.48-20.62-0.2 0-2.49 1.4-5.07 3.11-6.5 4.3-15 5.3-22.08 2.59-10.19-3.89-15.34-13.7-14.01-26.69 0.82-7.97 3.62-13.07 10-18.23 4.17-3.37 5.94-3.92 13.86-4.32 7.37-0.37 10.05 0.04 14.21 2.16 11.52 5.88 14.68 15.64 13.7 42.3-0.54 14.74-0.98 17.29-3.99 23.45-3.58 7.31-8.4 11.79-16.2 15.05-5.13 2.14-28.25 4-29.8 2.4zm31.6-46.21c8.63-4.46 10.11-19.13 2.6-25.84-3.22-2.87-5.09-3.51-10.29-3.51-5.56 0-6.89 0.53-10.61 4.25-3.84 3.84-4.25 4.94-4.25 11.38 0 6.44 0.41 7.54 4.25 11.38 3.47 3.47 5.2 4.25 9.44 4.25 2.85 0 6.84-0.85 8.85-1.9zM43.93 959.91c-9.74-3.9-15.11-12.19-15.15-23.39-0.04-8.59 2.29-13.91 8.22-18.8l4.81-3.97-2.79-1.95c-6.81-4.77-8.94-17.6-4.38-26.45 4.91-9.53 19.9-13.65 30.81-8.48 12.42 5.9 15.66 22.73 6.35 33.04l-4.18 4.62 3.7 2.19c6.9 4.08 10.8 15.66 8.59 25.52-2.73 12.2-11.91 18.99-25.54 18.9-4.12-0.03-8.82-0.58-10.44-1.23zm21.98-12.75c5.9-5.9 5.98-16.79 0.15-22.99-5.9-6.28-17.54-6.2-23.51 0.15-5.55 5.9-4.6 19.1 1.75 24.37 5.25 4.36 16.52 3.56 21.61-1.53zM62.6 906.35C65.54 903.4 66.25 901.61 66.25 897.14 66.25 886.81 57.59 881.05 48.85 885.57 37.72 891.33 41.94 910 54.38 910c3.38 0 5.52-0.95 8.22-3.65zM50.41 850.5c-1.51-3.93 0.71-29.86 3.35-39.19 1.45-5.12 5.42-14.72 8.81-21.34C65.97 783.36 68.75 777.61 68.75 777.2c0-0.41-7.03-0.75-15.62-0.74l-15.62 0 0 6.14 0 6.14-5.05 0-5.05 0 0.36-10.94 0.36-10.94 25.63 0 25.63 0 0.39 6.08c0.3 4.78-0.27 7.06-2.68 10.71-10.65 16.1-15.55 31.82-16.67 53.53l-0.79 15.31-4.22 0c-2.71 0-4.5-0.71-4.99-2zM42.59 743.87c-6.27-2.54-10.44-7.13-13.33-14.65-1.59-4.13-1.9-9.11-1.56-25 0.39-18.05 0.7-20.4 3.49-26.07 2.99-6.07 10.11-14.39 12.32-14.39 0.6 0 3.01-0.97 5.35-2.15 2.91-1.47 8.25-2.3 16.91-2.64l12.65-0.49 0.51 3.57C80.05 669.89 79.86 670 65 670l-13.57 0-5.59 5.35c-5.18 4.97-5.65 5.94-6.47 13.57-1.33 12.4-0.98 13.04 4.92 9.02 3-2.04 7.22-3.58 10.79-3.92C61.03 693.45 70 695.55 70 697.51c0 0.59 1.13 1.43 2.51 1.86 3.7 1.17 7.7 11.02 7.85 19.34 0.22 11.74-5.3 20.91-15.15 25.18-6.73 2.92-15.37 2.9-22.61-0.03zm22.69-12.33c5.34-5.34 6.18-14.07 1.96-20.29-7.63-11.25-25.26-8.18-27.7 4.82-1.42 7.55 0.28 12.98 5.26 16.86 3.93 3.06 5.39 3.47 10.62 2.98 4.63-0.43 6.95-1.46 9.86-4.37zM28.75 632.5l0-5 14.22 0c20.77 0 25.41-2.63 27.56-15.64 1.02-6.14-1.57-13.02-6.3-16.74-4.35-3.42-12.76-3.48-18.27-0.12-2.71 1.65-6.3 2.5-10.66 2.5l-6.56 0.01 0-23.15 0-23.15 25.94 0.34 25.94 0.34 0 4.38 0 4.38-20.94 0.34-20.94 0.34 0 13.25c0 10.4 0.34 12.99 1.56 12.06 2.44-1.85 11.4-4.12 16.24-4.12 6.04 0 14.78 3.27 18 6.72 5.73 6.15 6.96 10.4 6.5 22.5-0.49 13.1-2.75 17.46-11.79 22.77-4.75 2.79-6.37 3-22.81 3l-17.7 0 0-5zM62.14 527.98C61.65 527.49 61.25 522.98 61.25 517.95l0-9.13-15.94-0.35-15.94-0.35-0.33-32.89-0.33-32.89 5.21 0.39 5.21 0.39-0.14 27.81-0.14 27.81 11.17 0 11.17 0 0.35-19.06 0.35-19.06 5 0 5 0 0 19.06 0 19.06 4.69 0c4.64 0 4.69 0.05 4.69 5 0 4.94-0.05 5-4.69 5l-4.69 0 0 9.69 0 9.69-4.42 0.37c-2.43 0.2-4.82-0.03-5.31-0.52zM40 418.65c-3.78-1.39-7.86-2.84-9.06-3.23-1.65-0.54-2.19-2.08-2.19-6.32 0-4.87 0.29-5.49 2.19-4.68 10.85 4.63 19.48 7.13 25.02 7.24 5.79 0.12 7.05-0.33 10.48-3.77 3.03-3.03 4.04-5.29 4.5-10.07C71.99 386.83 65.91 380 55.06 380c-5.05 0-5.37-0.33-5.37-5.62 0-3.99 0.47-4.37 5.37-4.37 10.7 0 16.8-7.45 13.72-16.77-1.83-5.55-6.39-8.44-13.33-8.44-6.5 0-10.87 2.49-13.58 7.72-2.07 4-3.6 4.44-8.65 2.53-2.84-1.08-3.05-1.58-1.93-4.54 6.78-17.82 34.22-21.83 45.07-6.58 6.19 8.69 3.88 23.95-4.26 28.15l-3.8 1.96 3.03 2.33c1.67 1.28 3.4 2.34 3.86 2.36 0.46 0.02 2.11 2.09 3.67 4.62 3.47 5.61 3.89 17.7 0.83 23.56C76.97 412.14 71.38 417.53 66.6 419.55 60.73 422.03 48.06 421.6 40 418.65ZM27.79 311.45c-1.23-3.2 0.79-23.75 2.7-27.44 2.82-5.46 8.73-9.92 20.08-15.16C62.42 263.37 67.5 258.21 67.5 251.66c0-8.83-6.22-14.84-15.12-14.61-6.18 0.16-10.87 3.26-13.13 8.67C37.63 249.6 36.99 250 32.38 250c-5.07 0-5.08-0.01-4.24-4.06 2.98-14.46 19.89-22.58 35.95-17.28 11.88 3.92 17.9 19.7 12.26 32.13-2.69 5.92-8.57 10.34-22.83 17.14-12.43 5.93-15 9.13-14.52 18.06l0.37 6.76 20.16-0.18c20.09-0.18 20.16-0.17 20.67 2.69 0.92 5.1-0.17 7.24-3.73 7.29-40.66 0.65-48.07 0.48-48.68-1.11zm4.69-107.71c-0.78-0.48-1.23-2.78-1.01-5.12L31.88 194.38l9.38-0.15 9.38-0.15 0.33-32.51 0.33-32.51-7.83-0.02c-13.11-0.03-12.4 0.26-11.97-4.98l0.39-4.69 14.38 0 14.38 0 0.33 37.5 0.33 37.5 9.67 0 9.67 0 0.39 4.69 0.39 4.69-20.39 0.12c-11.21 0.07-21.9 0.26-23.76 0.43-1.85 0.17-4-0.09-4.78-0.57zM45.63 95.73C33.44 90.29 26.11 70.06 28.01 47.13 29.97 23.53 39.67 10.88 55.68 11.07 73.75 11.29 82.67 26.05 82.6 55.63 82.56 76.56 76.25 91.26 65.37 95.81 60.26 97.95 50.51 97.91 45.63 95.73ZM63.52 84.38C69 79.76 71.43 72.41 72.17 58.13 73.23 37.75 68.54 24.28 59.35 21.24 52.76 19.07 46.55 22.52 42.5 30.63c-2.87 5.74-3.12 7.63-3.12 23.13 0 18.82 1.95 26.66 7.77 31.24 4.55 3.58 11.71 3.31 16.37-0.61z" fill="#0c8652"/></svg>