<svg xmlns="http://www.w3.org/2000/svg" xmlns:svg="http://www.w3.org/2000/svg" id="Capa_1" x="0" y="0" version="1.1" viewBox="0 0 512.007 512.007" xml:space="preserve" style="enable-background:new 0 0 512.007 512.007"><metadata id="metadata57"/><g id="g14"><g id="g12"><path id="path10" d="m 292.417,0.967 c -3.797,-1.749 -8.299,-1.088 -11.435,1.685 L 113.323,149.34 H 32.001 c -17.643,0 -32,14.357 -32,32 v 149.333 c 0,17.643 14.357,32 32,32 h 81.323 l 167.659,146.688 c 1.984,1.749 4.48,2.645 7.019,2.645 1.493,0 3.008,-0.32 4.416,-0.96 3.797,-1.728 6.251,-5.525 6.251,-9.707 V 10.674 c -0.002,-4.182 -2.455,-7.979 -6.252,-9.707 z"/></g></g><path style="fill:#030104;stroke-width:15.0601" id="path61" d="m 373.46515,154.62957 c -6.56622,-6.53611 -17.12338,-6.53611 -23.6143,0 -6.56623,6.5361 -6.56623,17.13844 0,23.6143 21.47576,21.55106 32.12328,49.48763 32.1534,77.66515 -0.0301,28.23777 -10.67764,56.35506 -32.1534,77.8007 -6.56623,6.53611 -6.56623,17.10832 0,23.6896 3.23793,3.28312 7.49995,4.87949 11.82221,4.87949 4.2319,0 8.52404,-1.59637 11.79209,-4.87949 27.93656,-27.9968 41.97262,-64.84897 41.9425,-101.4903 0.0452,-36.67144 -13.99088,-73.32783 -41.9425,-101.27945 z"/><path style="fill:#030104;stroke-width:15.2064" id="path63" d="m 426.37101,100.16822 c -6.6604,-6.629973 -17.32006,-6.629973 -23.90442,0 -6.53874,6.61478 -6.53874,17.28965 0,23.90442 36.46488,36.43448 54.62129,83.93919 54.68212,131.64159 -0.0608,47.9609 -18.14121,95.6785 -54.68212,132.32586 -6.56916,6.59957 -6.53874,17.22884 0,23.87401 3.33019,3.22375 7.6336,4.89645 11.96741,4.89645 4.30341,0 8.63722,-1.6727 11.93701,-4.89645 43.06445,-43.1861 64.50544,-99.78423 64.50544,-156.19987 0,-56.23318 -21.60826,-112.6032 -64.50544,-155.54601 z"/></svg>