<?xml version="1.0" encoding="UTF-8" standalone="no"?>
<svg
  xmlns:dc="http://purl.org/dc/elements/1.1/"
  xmlns:cc="http://creativecommons.org/ns#"
  xmlns:rdf="http://www.w3.org/1999/02/22-rdf-syntax-ns#"
  xmlns:svg="http://www.w3.org/2000/svg"
  xmlns="http://www.w3.org/2000/svg"
  xmlns:sodipodi="http://sodipodi.sourceforge.net/DTD/sodipodi-0.dtd"
  xmlns:inkscape="http://www.inkscape.org/namespaces/inkscape"
  viewBox="0 0 299.99999 300"
  height="300"
  width="300"
  version="1.1"
  id="svg4206"
  inkscape:version="0.91 r13725"
  sodipodi:docname="walk.svg">
 <sodipodi:namedview
   pagecolor="#ffffff"
   bordercolor="#666666"
   borderopacity="1"
   objecttolerance="10"
   gridtolerance="10"
   guidetolerance="10"
   inkscape:pageopacity="0"
   inkscape:pageshadow="2"
   inkscape:window-width="953"
   inkscape:window-height="595"
   id="namedview6"
   showgrid="true"
   showguides="false"
   inkscape:zoom="0.80759004"
   inkscape:cx="76.003212"
   inkscape:cy="146.11374"
   inkscape:window-x="0"
   inkscape:window-y="0"
   inkscape:window-maximized="0"
   inkscape:current-layer="svg4206">
  <inkscape:grid
    type="xygrid"
    id="grid4134" />
 </sodipodi:namedview>
 <metadata
   id="metadata4212">
  <rdf:RDF>
   <cc:Work
     rdf:about="">
    <dc:format>image/svg+xml</dc:format>
    <dc:type
      rdf:resource="http://purl.org/dc/dcmitype/StillImage" />
    <dc:title></dc:title>
   </cc:Work>
  </rdf:RDF>
 </metadata>
 <defs
   id="defs4210" />
 <path
   id="path5340"
   d="m 152.34418,3.7735131 c -6.82437,-0.06495 -13.84788,3.0596879 -18.82617,10.1074219 -3.19836,4.527896 -3.75,6.456204 -3.75,13.105469 0,9.711842 3.98386,16.509929 12.08594,20.626953 15.02326,7.63398 32.40086,-3.227163 32.55469,-20.345703 0.12957,-14.420367 -10.6905,-23.3858919 -22.06446,-23.4941409 z m -2.25,52.8085939 c -0.47785,-0.01326 -0.95541,-0.01235 -1.43164,0.0039 -2.53988,0.08678 -5.04409,0.597338 -7.37304,1.572266 -4.01986,1.682765 -49.440203,46.527867 -51.207033,50.558587 -0.51402,1.17265 -2.266651,13.38282 -3.894531,27.13282 -2.52048,21.28944 -2.717355,25.59589 -1.333985,29.01758 1.73177,4.28335 5.165252,5.85158 11.263672,5.14257 5.967847,-0.69383 7.663147,-5.54736 10.068357,-28.81445 l 2.15821,-20.86523 8.04296,-7.86524 8.04102,-7.86523 -0.71875,4.375 c -0.39564,2.40625 -3.59018,28.40689 -7.09961,57.77929 l -6.38086,53.4043 -12.417967,27.625 c -9.74087,21.66949 -12.417969,28.82624 -12.417969,33.20117 0,6.63056 2.797743,11.41675 8.064453,13.79102 5.44451,2.45442 13.056373,1.10709 17.167973,-3.03906 2.00616,-2.02301 9.1255,-16.47231 17.67968,-35.88672 13.8575,-31.45074 14.36348,-32.91504 15.70313,-45.36133 0.76139,-7.07383 1.40097,-13.82383 1.42187,-15 0.0825,-4.64093 2.48615,2.74173 14.97266,45.98633 7.0471,24.40625 13.70125,45.9115 14.78515,47.79101 6.29658,10.91851 25.51587,7.51761 28.26563,-5.00195 0.53844,-2.45151 -4.89089,-22.8869 -18.51563,-69.69141 l -19.27734,-66.22265 2.30273,-19.375 c 1.26634,-10.65625 2.33213,-19.9375 2.36915,-20.625 0.037,-0.6875 3.0197,3.20884 6.62695,8.66015 l 6.55859,9.91211 18.75,10.50196 c 21.80216,12.211 24.9167,13.1142 30.03125,8.71484 3.9837,-3.42662 4.94879,-10.29863 1.95313,-13.9082 -0.90232,-1.08722 -9.6519,-6.32499 -19.44336,-11.63868 L 197.00629,110.93172 184.63715,90.982498 C 177.83406,80.01071 170.68543,68.839931 168.75239,66.158279 164.50928,60.27196 157.26193,56.781036 150.09418,56.582107 Z"
   style="fill:#000000"
   inkscape:connector-curvature="0" />
</svg>
